Yamla Pagla Deewana 2 2013 Hindi Movies DVDScr XviD New Source Sample Included ~ Γÿ╗rDXΓÿ╗

Screen Shots :
 
http://myimghosting.serveftp.com/13/YamlaPaglaDeewana2.html
 
http://myimghost.cwahi.net/YamlaPaglaDeewana2.html
 
http://users2.jabry.com/myimghost/YamlaPaglaDeewana2/YamlaPaglaDeewana2.jpg

Format                                   : MPEG-PS
File size                                : 673 MiB
Duration                                 : 2h 24mn
Overall bit rate mode                    : Variable
Overall bit rate                         : 650 Kbps

Video
ID                                       : 224 (0xE0)
Format                                   : MPEG Video
Format version                           : Version 2
Format profile                           : Main@Main
Format settings, BVOP                    : Yes
Format settings, Matrix                  : Default
Format settings, GOP                     : Variable
Duration                                 : 2h 24mn
Bit rate mode                            : Variable
Bit rate                                 : 509 Kbps
Maximum bit rate                         : 9 672 Kbps
Width                                    : 352 pixels
Height                                   : 288 pixels
Display aspect ratio                     : 4:3
Frame rate                               : 25.000 fps
Standard                                 : PAL
Color space                              : YUV
Chroma subsampling                       : 4:2:0
Bit depth                                : 8 bits
Scan type                                : Progressive
Compression mode                         : Lossy
Bits/(Pixel*Frame)                       : 0.201
Stream size                              : 527 MiB (78%)

Audio
ID                                       : 192 (0xC0)
Format                                   : MPEG Audio
Format version                           : Version 1
Format profile                           : Layer 2
Duration                                 : 2h 24mn
Bit rate mode                            : Constant
Bit rate                                 : 128 Kbps
Channel(s)                               : 2 channels
Sampling rate                            : 48.0 KHz
Compression mode                         : Lossy
Stream size                              : 133 MiB (20%)

Menu